<svg width="28" height="28" viewBox="0 0 28 28" fill="none" xmlns="http://www.w3.org/2000/svg">
<path d="M14 28L11.97 26.0164C9.61333 23.7021 7.665 21.7057 6.125 20.0272C4.585 18.3488 3.36 16.8417 2.45 15.5061C1.54 14.1714 0.9044 12.9446 0.5432 11.8256C0.182 10.7066 0.000933333 9.56222 0 8.39237C0 6.00182 0.735 4.00545 2.205 2.40327C3.675 0.80109 5.50667 0 7.7 0C8.91333 0 10.0683 0.279746 11.165 0.839237C12.2617 1.39873 13.2067 2.1871 14 3.20436C14.7933 2.1871 15.7383 1.39873 16.835 0.839237C17.9317 0.279746 19.0867 0 20.3 0C22.4933 0 24.325 0.80109 25.795 2.40327C27.265 4.00545 28 6.00182 28 8.39237C28 9.56222 27.8194 10.7066 27.4582 11.8256C27.097 12.9446 26.4609 14.1714 25.55 15.5061C24.64 16.8417 23.415 18.3488 21.875 20.0272C20.335 21.7057 18.3867 23.7021 16.03 26.0164L14 28Z" fill="white"/>
</svg>
